<mxfile host="app.diagrams.net" agent="Mozilla/5.0 (Windows NT 10.0; Win64; x64) AppleWebKit/537.36 (KHTML, like Gecko) Chrome/133.0.0.0 Safari/537.36" version="26.0.16" pages="2">
  <diagram name="Page-1" id="4bd5d27a-524c-7e24-5d5f-89a86ee4fca1">
    <mxGraphModel grid="1" page="1" gridSize="10" guides="1" tooltips="1" connect="1" arrows="1" fold="1" pageScale="1" pageWidth="1100" pageHeight="850" background="none" math="0" shadow="0">
      <root>
        <mxCell id="0" />
        <mxCell id="1" parent="0" />
        <mxCell id="nv0CsmclkaXGFDLiO9ux-5" value="" style="verticalLabelPosition=bottom;html=1;verticalAlign=top;align=center;shape=mxgraph.floorplan.room;fillColor=strokeColor;" vertex="1" parent="1">
          <mxGeometry x="1010" y="17.25" width="100" height="100" as="geometry" />
        </mxCell>
        <mxCell id="YIYOL8x4ok7efN913Wlm-157" value="" style="verticalLabelPosition=bottom;html=1;verticalAlign=top;align=center;shape=mxgraph.floorplan.office_chair;rotation=-90;" vertex="1" parent="1">
          <mxGeometry x="2720" y="270" width="40" height="43" as="geometry" />
        </mxCell>
        <mxCell id="YIYOL8x4ok7efN913Wlm-146" value="" style="verticalLabelPosition=bottom;html=1;verticalAlign=top;align=center;shape=mxgraph.floorplan.office_chair;rotation=-180;" vertex="1" parent="1">
          <mxGeometry x="2630" y="649.25" width="40" height="41.5" as="geometry" />
        </mxCell>
        <mxCell id="YIYOL8x4ok7efN913Wlm-141" value="" style="verticalLabelPosition=bottom;html=1;verticalAlign=top;align=center;shape=mxgraph.floorplan.office_chair;rotation=-180;" vertex="1" parent="1">
          <mxGeometry x="2180" y="160.75" width="40" height="43" as="geometry" />
        </mxCell>
        <mxCell id="YIYOL8x4ok7efN913Wlm-140" value="" style="verticalLabelPosition=bottom;html=1;verticalAlign=top;align=center;shape=mxgraph.floorplan.office_chair;rotation=-180;" vertex="1" parent="1">
          <mxGeometry x="2110" y="157" width="40" height="43" as="geometry" />
        </mxCell>
        <mxCell id="YIYOL8x4ok7efN913Wlm-139" value="" style="verticalLabelPosition=bottom;html=1;verticalAlign=top;align=center;shape=mxgraph.floorplan.office_chair;" vertex="1" parent="1">
          <mxGeometry x="2140" y="95.38" width="40" height="43" as="geometry" />
        </mxCell>
        <mxCell id="YIYOL8x4ok7efN913Wlm-137" value="" style="verticalLabelPosition=bottom;html=1;verticalAlign=top;align=center;shape=mxgraph.floorplan.office_chair;rotation=-180;fontStyle=1" vertex="1" parent="1">
          <mxGeometry x="1850" y="157" width="40" height="43" as="geometry" />
        </mxCell>
        <mxCell id="YIYOL8x4ok7efN913Wlm-135" value="" style="verticalLabelPosition=bottom;html=1;verticalAlign=top;align=center;shape=mxgraph.floorplan.office_chair;rotation=-180;" vertex="1" parent="1">
          <mxGeometry x="1790" y="157" width="40" height="43" as="geometry" />
        </mxCell>
        <mxCell id="YIYOL8x4ok7efN913Wlm-136" value="" style="verticalLabelPosition=bottom;html=1;verticalAlign=top;align=center;shape=mxgraph.floorplan.office_chair;" vertex="1" parent="1">
          <mxGeometry x="1820" y="90" width="40" height="43" as="geometry" />
        </mxCell>
        <mxCell id="YIYOL8x4ok7efN913Wlm-132" value="" style="verticalLabelPosition=bottom;html=1;verticalAlign=top;align=center;shape=mxgraph.floorplan.office_chair;rotation=-180;" vertex="1" parent="1">
          <mxGeometry x="1530" y="147" width="40" height="43" as="geometry" />
        </mxCell>
        <mxCell id="YIYOL8x4ok7efN913Wlm-131" value="" style="verticalLabelPosition=bottom;html=1;verticalAlign=top;align=center;shape=mxgraph.floorplan.office_chair;rotation=-180;" vertex="1" parent="1">
          <mxGeometry x="1470" y="150" width="40" height="43" as="geometry" />
        </mxCell>
        <mxCell id="YIYOL8x4ok7efN913Wlm-130" value="" style="verticalLabelPosition=bottom;html=1;verticalAlign=top;align=center;shape=mxgraph.floorplan.office_chair;" vertex="1" parent="1">
          <mxGeometry x="1500" y="90" width="40" height="43" as="geometry" />
        </mxCell>
        <mxCell id="YIYOL8x4ok7efN913Wlm-118" value="" style="verticalLabelPosition=bottom;html=1;verticalAlign=top;align=center;shape=stencil(vZPRDoIgFIafhnuC1X3Deg/UYzIRHJDW24eAW2p20Vx38P3wwRkHRJmteQeIYG47KByiGSKk50bwXHpMfFJHeCA4zhVvIaIMbOMB00aB8QMSF1hndAODKF3aKlQNRriYDkl3DDp6QfiMRjVGlBVaKX8LoZUN7LrIc140N6PvqpwFU9zx8cRVMMWt7sdKH/ECqZrnbLY8ci6QQr0JUgV7Kk4/OPY2/EdQSG1hcxVlnq9eM9CNFqCs0ga+9EYlpIyN+bGzPFkJAo3/I4AX);rotation=-180;labelBackgroundColor=none;container=0;" vertex="1" parent="1">
          <mxGeometry x="1430" y="57" width="180" height="116.75" as="geometry">
            <mxRectangle x="1560" y="133.75" width="50" height="40" as="alternateBounds" />
          </mxGeometry>
        </mxCell>
        <mxCell id="YIYOL8x4ok7efN913Wlm-114" value="" style="verticalLabelPosition=bottom;html=1;verticalAlign=top;align=center;shape=mxgraph.floorplan.office_chair;labelBackgroundColor=none;" vertex="1" parent="1">
          <mxGeometry x="2230" y="820.5" width="40" height="43" as="geometry" />
        </mxCell>
        <mxCell id="YIYOL8x4ok7efN913Wlm-115" value="" style="verticalLabelPosition=bottom;html=1;verticalAlign=top;align=center;shape=mxgraph.floorplan.office_chair;labelBackgroundColor=none;" vertex="1" parent="1">
          <mxGeometry x="2160" y="823.5" width="40" height="43" as="geometry" />
        </mxCell>
        <mxCell id="YIYOL8x4ok7efN913Wlm-112" value="" style="verticalLabelPosition=bottom;html=1;verticalAlign=top;align=center;shape=mxgraph.floorplan.office_chair;labelBackgroundColor=none;" vertex="1" parent="1">
          <mxGeometry x="1890" y="818.5" width="40" height="43" as="geometry" />
        </mxCell>
        <mxCell id="YIYOL8x4ok7efN913Wlm-113" value="" style="verticalLabelPosition=bottom;html=1;verticalAlign=top;align=center;shape=mxgraph.floorplan.office_chair;labelBackgroundColor=none;" vertex="1" parent="1">
          <mxGeometry x="1820" y="816" width="40" height="43" as="geometry" />
        </mxCell>
        <mxCell id="YIYOL8x4ok7efN913Wlm-111" value="" style="verticalLabelPosition=bottom;html=1;verticalAlign=top;align=center;shape=mxgraph.floorplan.office_chair;container=0;labelBackgroundColor=none;" collapsed="1" vertex="1" parent="1">
          <mxGeometry x="1610" y="823" width="40" height="40" as="geometry">
            <mxRectangle x="1600" y="823" width="40" height="43" as="alternateBounds" />
          </mxGeometry>
        </mxCell>
        <mxCell id="YIYOL8x4ok7efN913Wlm-110" value="" style="verticalLabelPosition=bottom;html=1;verticalAlign=top;align=center;shape=mxgraph.floorplan.office_chair;container=0;labelBackgroundColor=none;" collapsed="1" vertex="1" parent="1">
          <mxGeometry x="1540" y="823.5" width="37.5" height="40" as="geometry">
            <mxRectangle x="1527.5" y="823.5" width="40" height="43" as="alternateBounds" />
          </mxGeometry>
        </mxCell>
        <mxCell id="YIYOL8x4ok7efN913Wlm-108" value="" style="verticalLabelPosition=bottom;html=1;verticalAlign=top;align=center;shape=mxgraph.floorplan.office_chair;rotation=-180;labelBackgroundColor=none;" vertex="1" parent="1">
          <mxGeometry x="2203.5" y="887.5" width="40" height="43" as="geometry" />
        </mxCell>
        <mxCell id="YIYOL8x4ok7efN913Wlm-107" value="" style="verticalLabelPosition=bottom;html=1;verticalAlign=top;align=center;shape=mxgraph.floorplan.office_chair;rotation=120;labelBackgroundColor=none;" vertex="1" parent="1">
          <mxGeometry x="1867" y="893" width="40" height="43" as="geometry" />
        </mxCell>
        <mxCell id="YIYOL8x4ok7efN913Wlm-106" value="" style="verticalLabelPosition=bottom;html=1;verticalAlign=top;align=center;shape=mxgraph.floorplan.office_chair;rotation=-180;container=0;labelBackgroundColor=none;" vertex="1" parent="1">
          <mxGeometry x="1570" y="890" width="40" height="43" as="geometry" />
        </mxCell>
        <mxCell id="YIYOL8x4ok7efN913Wlm-59" value="" style="shape=rect;shadow=0;html=1;labelBackgroundColor=none;" vertex="1" parent="1">
          <mxGeometry x="670" y="880" width="160" height="60" as="geometry" />
        </mxCell>
        <mxCell id="YIYOL8x4ok7efN913Wlm-52" value="" style="verticalLabelPosition=bottom;html=1;verticalAlign=top;align=center;shape=mxgraph.floorplan.chair;shadow=0;direction=west;labelBackgroundColor=none;" vertex="1" parent="1">
          <mxGeometry x="1040" y="814" width="40" height="52" as="geometry" />
        </mxCell>
        <mxCell id="YIYOL8x4ok7efN913Wlm-55" value="" style="verticalLabelPosition=bottom;html=1;verticalAlign=top;align=center;shape=mxgraph.floorplan.chair;shadow=0;direction=west;labelBackgroundColor=none;" vertex="1" parent="1">
          <mxGeometry x="1090" y="811.5" width="40" height="52" as="geometry" />
        </mxCell>
        <mxCell id="YIYOL8x4ok7efN913Wlm-54" value="" style="verticalLabelPosition=bottom;html=1;verticalAlign=top;align=center;shape=mxgraph.floorplan.chair;shadow=0;labelBackgroundColor=none;" vertex="1" parent="1">
          <mxGeometry x="1090" y="740" width="40" height="52" as="geometry" />
        </mxCell>
        <mxCell id="YIYOL8x4ok7efN913Wlm-53" value="" style="verticalLabelPosition=bottom;html=1;verticalAlign=top;align=center;shape=mxgraph.floorplan.chair;shadow=0;labelBackgroundColor=none;" vertex="1" parent="1">
          <mxGeometry x="1040" y="740" width="40" height="52" as="geometry" />
        </mxCell>
        <mxCell id="YIYOL8x4ok7efN913Wlm-3" value="" style="verticalLabelPosition=bottom;html=1;verticalAlign=top;align=center;shape=mxgraph.floorplan.office_chair;labelBackgroundColor=none;" vertex="1" parent="1">
          <mxGeometry x="1645" y="1053.5" width="40" height="43" as="geometry" />
        </mxCell>
        <mxCell id="-vJ-C_RmUiXjjiVzjGZF-12" value="" style="verticalLabelPosition=bottom;html=1;verticalAlign=top;align=center;shape=mxgraph.floorplan.room;labelBackgroundColor=none;" vertex="1" parent="1">
          <mxGeometry x="1270" y="960" width="660" height="440" as="geometry" />
        </mxCell>
        <mxCell id="-vJ-C_RmUiXjjiVzjGZF-15" value="" style="verticalLabelPosition=bottom;html=1;verticalAlign=top;align=center;shape=mxgraph.floorplan.wall;labelBackgroundColor=none;" vertex="1" parent="1">
          <mxGeometry x="1390" y="570" width="620" height="10" as="geometry" />
        </mxCell>
        <mxCell id="-vJ-C_RmUiXjjiVzjGZF-16" value="" style="verticalLabelPosition=bottom;html=1;verticalAlign=top;align=center;shape=mxgraph.floorplan.wall;direction=south;labelBackgroundColor=none;" vertex="1" parent="1">
          <mxGeometry x="1270" y="380" width="10" height="585" as="geometry" />
        </mxCell>
        <mxCell id="-vJ-C_RmUiXjjiVzjGZF-17" value="" style="verticalLabelPosition=bottom;html=1;verticalAlign=top;align=center;shape=mxgraph.floorplan.wall;direction=south;labelBackgroundColor=none;" vertex="1" parent="1">
          <mxGeometry x="1390" y="720" width="10" height="250" as="geometry" />
        </mxCell>
        <mxCell id="-vJ-C_RmUiXjjiVzjGZF-23" value="" style="verticalLabelPosition=bottom;html=1;verticalAlign=top;align=center;shape=mxgraph.floorplan.room;labelBackgroundColor=none;" vertex="1" parent="1">
          <mxGeometry x="1390" y="570" width="330" height="400" as="geometry" />
        </mxCell>
        <mxCell id="-vJ-C_RmUiXjjiVzjGZF-34" value="" style="verticalLabelPosition=bottom;html=1;verticalAlign=top;align=center;shape=mxgraph.floorplan.doorRight;aspect=fixed;rotation=-180;labelBackgroundColor=none;" vertex="1" parent="1">
          <mxGeometry x="1440" y="340" width="80" height="85" as="geometry" />
        </mxCell>
        <mxCell id="-vJ-C_RmUiXjjiVzjGZF-36" value="" style="verticalLabelPosition=bottom;html=1;verticalAlign=top;align=center;shape=mxgraph.floorplan.room;labelBackgroundColor=none;" vertex="1" parent="1">
          <mxGeometry x="400" y="30.5" width="610" height="360" as="geometry" />
        </mxCell>
        <mxCell id="-vJ-C_RmUiXjjiVzjGZF-37" value="" style="verticalLabelPosition=bottom;html=1;verticalAlign=top;align=center;shape=mxgraph.floorplan.room;labelBackgroundColor=none;" vertex="1" parent="1">
          <mxGeometry x="870" y="730" width="400" height="280" as="geometry" />
        </mxCell>
        <mxCell id="-vJ-C_RmUiXjjiVzjGZF-43" value="" style="verticalLabelPosition=bottom;html=1;verticalAlign=top;align=center;shape=mxgraph.floorplan.room;labelBackgroundColor=none;" vertex="1" parent="1">
          <mxGeometry x="1710" y="570" width="330" height="400" as="geometry" />
        </mxCell>
        <mxCell id="-vJ-C_RmUiXjjiVzjGZF-44" value="" style="verticalLabelPosition=bottom;html=1;verticalAlign=top;align=center;shape=mxgraph.floorplan.room;labelBackgroundColor=none;" vertex="1" parent="1">
          <mxGeometry x="2030" y="570" width="330" height="400" as="geometry" />
        </mxCell>
        <mxCell id="-vJ-C_RmUiXjjiVzjGZF-45" value="" style="verticalLabelPosition=bottom;html=1;verticalAlign=top;align=center;shape=mxgraph.floorplan.room;labelBackgroundColor=none;" vertex="1" parent="1">
          <mxGeometry x="1390" y="30" width="330" height="400" as="geometry" />
        </mxCell>
        <mxCell id="-vJ-C_RmUiXjjiVzjGZF-46" value="" style="verticalLabelPosition=bottom;html=1;verticalAlign=top;align=center;shape=mxgraph.floorplan.room;labelBackgroundColor=none;" vertex="1" parent="1">
          <mxGeometry x="1710" y="30" width="330" height="400" as="geometry" />
        </mxCell>
        <mxCell id="-vJ-C_RmUiXjjiVzjGZF-47" value="" style="verticalLabelPosition=bottom;html=1;verticalAlign=top;align=center;shape=mxgraph.floorplan.room;labelBackgroundColor=none;" vertex="1" parent="1">
          <mxGeometry x="2030" y="30" width="330" height="400" as="geometry" />
        </mxCell>
        <mxCell id="-vJ-C_RmUiXjjiVzjGZF-48" value="" style="verticalLabelPosition=bottom;html=1;verticalAlign=top;align=center;shape=mxgraph.floorplan.doorRight;aspect=fixed;rotation=-180;labelBackgroundColor=none;" vertex="1" parent="1">
          <mxGeometry x="1760" y="340" width="80" height="85" as="geometry" />
        </mxCell>
        <mxCell id="-vJ-C_RmUiXjjiVzjGZF-49" value="" style="verticalLabelPosition=bottom;html=1;verticalAlign=top;align=center;shape=mxgraph.floorplan.doorRight;aspect=fixed;rotation=-180;labelBackgroundColor=none;" vertex="1" parent="1">
          <mxGeometry x="2070" y="340" width="80" height="85" as="geometry" />
        </mxCell>
        <mxCell id="-vJ-C_RmUiXjjiVzjGZF-50" value="" style="verticalLabelPosition=bottom;html=1;verticalAlign=top;align=center;shape=mxgraph.floorplan.doorRight;aspect=fixed;labelBackgroundColor=none;" vertex="1" parent="1">
          <mxGeometry x="1590" y="570" width="80" height="85" as="geometry" />
        </mxCell>
        <mxCell id="-vJ-C_RmUiXjjiVzjGZF-51" value="" style="verticalLabelPosition=bottom;html=1;verticalAlign=top;align=center;shape=mxgraph.floorplan.doorRight;aspect=fixed;labelBackgroundColor=none;" vertex="1" parent="1">
          <mxGeometry x="1890" y="580" width="80" height="85" as="geometry" />
        </mxCell>
        <mxCell id="-vJ-C_RmUiXjjiVzjGZF-52" value="" style="verticalLabelPosition=bottom;html=1;verticalAlign=top;align=center;shape=mxgraph.floorplan.doorRight;aspect=fixed;labelBackgroundColor=none;" vertex="1" parent="1">
          <mxGeometry x="2220" y="570" width="80" height="85" as="geometry" />
        </mxCell>
        <mxCell id="-vJ-C_RmUiXjjiVzjGZF-53" value="" style="verticalLabelPosition=bottom;html=1;verticalAlign=top;align=center;shape=mxgraph.floorplan.room;labelBackgroundColor=none;" vertex="1" parent="1">
          <mxGeometry x="2350" y="190" width="470" height="540" as="geometry" />
        </mxCell>
        <mxCell id="-vJ-C_RmUiXjjiVzjGZF-54" value="" style="verticalLabelPosition=bottom;html=1;verticalAlign=top;align=center;shape=mxgraph.floorplan.room;labelBackgroundColor=none;" vertex="1" parent="1">
          <mxGeometry x="2360" y="-20" width="310" height="220" as="geometry" />
        </mxCell>
        <mxCell id="-vJ-C_RmUiXjjiVzjGZF-55" value="" style="verticalLabelPosition=bottom;html=1;verticalAlign=top;align=center;shape=mxgraph.floorplan.doorRight;aspect=fixed;rotation=-90;labelBackgroundColor=none;" vertex="1" parent="1">
          <mxGeometry x="2360" y="460" width="80" height="85" as="geometry" />
        </mxCell>
        <mxCell id="-vJ-C_RmUiXjjiVzjGZF-56" value="" style="verticalLabelPosition=bottom;html=1;verticalAlign=top;align=center;shape=mxgraph.floorplan.doorRight;aspect=fixed;rotation=-180;labelBackgroundColor=none;" vertex="1" parent="1">
          <mxGeometry x="2420" y="115" width="80" height="85" as="geometry" />
        </mxCell>
        <mxCell id="-vJ-C_RmUiXjjiVzjGZF-57" value="" style="verticalLabelPosition=bottom;html=1;verticalAlign=top;align=center;shape=mxgraph.floorplan.doorRight;aspect=fixed;rotation=-180;labelBackgroundColor=none;" vertex="1" parent="1">
          <mxGeometry x="1300" y="880" width="80" height="85" as="geometry" />
        </mxCell>
        <mxCell id="-vJ-C_RmUiXjjiVzjGZF-58" value="" style="verticalLabelPosition=bottom;html=1;verticalAlign=top;align=center;shape=mxgraph.floorplan.doorDouble;aspect=fixed;rotation=90;labelBackgroundColor=none;" vertex="1" parent="1">
          <mxGeometry x="1160" y="510" width="160" height="85" as="geometry" />
        </mxCell>
        <mxCell id="-vJ-C_RmUiXjjiVzjGZF-61" value="" style="verticalLabelPosition=bottom;html=1;verticalAlign=top;align=center;shape=mxgraph.floorplan.room;labelBackgroundColor=none;" vertex="1" parent="1">
          <mxGeometry x="1920" y="965" width="240" height="220" as="geometry" />
        </mxCell>
        <mxCell id="-vJ-C_RmUiXjjiVzjGZF-62" value="" style="verticalLabelPosition=bottom;html=1;verticalAlign=top;align=center;shape=mxgraph.floorplan.room;labelBackgroundColor=none;" vertex="1" parent="1">
          <mxGeometry x="1000" y="-10" width="400" height="300" as="geometry" />
        </mxCell>
        <mxCell id="-vJ-C_RmUiXjjiVzjGZF-63" value="" style="verticalLabelPosition=bottom;html=1;verticalAlign=top;align=center;shape=mxgraph.floorplan.wall;direction=south;labelBackgroundColor=none;" vertex="1" parent="1">
          <mxGeometry x="1000" y="280" width="10" height="100" as="geometry" />
        </mxCell>
        <mxCell id="-vJ-C_RmUiXjjiVzjGZF-64" value="" style="verticalLabelPosition=bottom;html=1;verticalAlign=top;align=center;shape=mxgraph.floorplan.doorRight;aspect=fixed;rotation=-180;labelBackgroundColor=none;" vertex="1" parent="1">
          <mxGeometry x="1070" y="205" width="80" height="85" as="geometry" />
        </mxCell>
        <mxCell id="-vJ-C_RmUiXjjiVzjGZF-65" value="" style="verticalLabelPosition=bottom;html=1;verticalAlign=top;align=center;shape=mxgraph.floorplan.doorRight;aspect=fixed;rotation=-90;labelBackgroundColor=none;" vertex="1" parent="1">
          <mxGeometry x="1930" y="1021.5" width="80" height="85" as="geometry" />
        </mxCell>
        <mxCell id="-vJ-C_RmUiXjjiVzjGZF-66" value="" style="verticalLabelPosition=bottom;html=1;verticalAlign=top;align=center;shape=mxgraph.floorplan.room;labelBackgroundColor=none;" vertex="1" parent="1">
          <mxGeometry x="620" y="730" width="260" height="220" as="geometry" />
        </mxCell>
        <mxCell id="YIYOL8x4ok7efN913Wlm-2" value="" style="verticalLabelPosition=bottom;html=1;verticalAlign=top;align=center;shape=mxgraph.floorplan.office_chair;labelBackgroundColor=none;" vertex="1" parent="1">
          <mxGeometry x="1520" y="1053.5" width="40" height="43" as="geometry" />
        </mxCell>
        <mxCell id="YIYOL8x4ok7efN913Wlm-1" value="" style="verticalLabelPosition=bottom;html=1;verticalAlign=top;align=center;shape=stencil(vZPRDoIgFIafhnuC1X3Deg/UYzIRHJDW24eAW2p20Vx38P3wwRkHRJmteQeIYG47KByiGSKk50bwXHpMfFJHeCA4zhVvIaIMbOMB00aB8QMSF1hndAODKF3aKlQNRriYDkl3DDp6QfiMRjVGlBVaKX8LoZUN7LrIc140N6PvqpwFU9zx8cRVMMWt7sdKH/ECqZrnbLY8ci6QQr0JUgV7Kk4/OPY2/EdQSG1hcxVlnq9eM9CNFqCs0ga+9EYlpIyN+bGzPFkJAo3/I4AX);rotation=-180;labelBackgroundColor=none;" vertex="1" parent="1">
          <mxGeometry x="1470" y="1030" width="260" height="113.75" as="geometry" />
        </mxCell>
        <mxCell id="YIYOL8x4ok7efN913Wlm-8" value="" style="verticalLabelPosition=bottom;html=1;verticalAlign=top;align=center;shape=mxgraph.floorplan.copier;labelBackgroundColor=none;" vertex="1" parent="1">
          <mxGeometry x="1535" y="970" width="110" height="60" as="geometry" />
        </mxCell>
        <mxCell id="YIYOL8x4ok7efN913Wlm-9" value="" style="verticalLabelPosition=bottom;html=1;verticalAlign=top;align=center;shape=mxgraph.floorplan.office_chair;rotation=-180;labelBackgroundColor=none;" vertex="1" parent="1">
          <mxGeometry x="1800" y="1240" width="40" height="43" as="geometry" />
        </mxCell>
        <mxCell id="YIYOL8x4ok7efN913Wlm-10" value="" style="verticalLabelPosition=bottom;html=1;verticalAlign=top;align=center;shape=mxgraph.floorplan.office_chair;rotation=-180;labelBackgroundColor=none;" vertex="1" parent="1">
          <mxGeometry x="1800" y="1310" width="40" height="43" as="geometry" />
        </mxCell>
        <mxCell id="YIYOL8x4ok7efN913Wlm-11" value="" style="verticalLabelPosition=bottom;html=1;verticalAlign=top;align=center;shape=mxgraph.floorplan.office_chair;rotation=-180;labelBackgroundColor=none;" vertex="1" parent="1">
          <mxGeometry x="1750" y="1240" width="40" height="43" as="geometry" />
        </mxCell>
        <mxCell id="YIYOL8x4ok7efN913Wlm-12" value="" style="verticalLabelPosition=bottom;html=1;verticalAlign=top;align=center;shape=mxgraph.floorplan.office_chair;rotation=-180;labelBackgroundColor=none;" vertex="1" parent="1">
          <mxGeometry x="1750" y="1310" width="40" height="43" as="geometry" />
        </mxCell>
        <mxCell id="YIYOL8x4ok7efN913Wlm-13" value="" style="verticalLabelPosition=bottom;html=1;verticalAlign=top;align=center;shape=mxgraph.floorplan.office_chair;rotation=-180;labelBackgroundColor=none;" vertex="1" parent="1">
          <mxGeometry x="1700" y="1310" width="40" height="43" as="geometry" />
        </mxCell>
        <mxCell id="YIYOL8x4ok7efN913Wlm-14" value="" style="verticalLabelPosition=bottom;html=1;verticalAlign=top;align=center;shape=mxgraph.floorplan.office_chair;rotation=-180;labelBackgroundColor=none;" vertex="1" parent="1">
          <mxGeometry x="1700" y="1240" width="40" height="43" as="geometry" />
        </mxCell>
        <mxCell id="YIYOL8x4ok7efN913Wlm-15" value="" style="verticalLabelPosition=bottom;html=1;verticalAlign=top;align=center;shape=mxgraph.floorplan.office_chair;rotation=-180;labelBackgroundColor=none;" vertex="1" parent="1">
          <mxGeometry x="1560" y="1240" width="40" height="43" as="geometry" />
        </mxCell>
        <mxCell id="YIYOL8x4ok7efN913Wlm-16" value="" style="verticalLabelPosition=bottom;html=1;verticalAlign=top;align=center;shape=mxgraph.floorplan.office_chair;rotation=-180;labelBackgroundColor=none;" vertex="1" parent="1">
          <mxGeometry x="1560" y="1320" width="40" height="43" as="geometry" />
        </mxCell>
        <mxCell id="YIYOL8x4ok7efN913Wlm-17" value="" style="verticalLabelPosition=bottom;html=1;verticalAlign=top;align=center;shape=mxgraph.floorplan.office_chair;rotation=-180;labelBackgroundColor=none;" vertex="1" parent="1">
          <mxGeometry x="1510" y="1320" width="40" height="43" as="geometry" />
        </mxCell>
        <mxCell id="YIYOL8x4ok7efN913Wlm-18" value="" style="verticalLabelPosition=bottom;html=1;verticalAlign=top;align=center;shape=mxgraph.floorplan.office_chair;rotation=-180;labelBackgroundColor=none;" vertex="1" parent="1">
          <mxGeometry x="1510" y="1240" width="40" height="43" as="geometry" />
        </mxCell>
        <mxCell id="YIYOL8x4ok7efN913Wlm-19" value="" style="verticalLabelPosition=bottom;html=1;verticalAlign=top;align=center;shape=mxgraph.floorplan.office_chair;rotation=-180;labelBackgroundColor=none;" vertex="1" parent="1">
          <mxGeometry x="1460" y="1240" width="40" height="43" as="geometry" />
        </mxCell>
        <mxCell id="YIYOL8x4ok7efN913Wlm-20" value="" style="verticalLabelPosition=bottom;html=1;verticalAlign=top;align=center;shape=mxgraph.floorplan.office_chair;rotation=-180;labelBackgroundColor=none;" vertex="1" parent="1">
          <mxGeometry x="1460" y="1320" width="40" height="43" as="geometry" />
        </mxCell>
        <mxCell id="YIYOL8x4ok7efN913Wlm-21" value="" style="verticalLabelPosition=bottom;html=1;verticalAlign=top;align=center;shape=mxgraph.floorplan.doorDouble;aspect=fixed;rotation=-90;labelBackgroundColor=none;" vertex="1" parent="1">
          <mxGeometry x="1240" y="1185" width="160" height="85" as="geometry" />
        </mxCell>
        <mxCell id="YIYOL8x4ok7efN913Wlm-22" value="" style="verticalLabelPosition=bottom;html=1;verticalAlign=top;align=center;shape=mxgraph.floorplan.plant;labelBackgroundColor=none;" vertex="1" parent="1">
          <mxGeometry x="1290" y="1330" width="47" height="51" as="geometry" />
        </mxCell>
        <mxCell id="YIYOL8x4ok7efN913Wlm-23" value="" style="verticalLabelPosition=bottom;html=1;verticalAlign=top;align=center;shape=mxgraph.floorplan.plant;labelBackgroundColor=none;" vertex="1" parent="1">
          <mxGeometry x="1860" y="1330" width="47" height="51" as="geometry" />
        </mxCell>
        <mxCell id="YIYOL8x4ok7efN913Wlm-24" value="" style="verticalLabelPosition=bottom;html=1;verticalAlign=top;align=center;shape=mxgraph.floorplan.office_chair;rotation=-180;labelBackgroundColor=none;" vertex="1" parent="1">
          <mxGeometry x="1650" y="1240" width="40" height="43" as="geometry" />
        </mxCell>
        <mxCell id="YIYOL8x4ok7efN913Wlm-25" value="" style="verticalLabelPosition=bottom;html=1;verticalAlign=top;align=center;shape=mxgraph.floorplan.office_chair;rotation=-180;labelBackgroundColor=none;" vertex="1" parent="1">
          <mxGeometry x="1650" y="1310" width="40" height="43" as="geometry" />
        </mxCell>
        <mxCell id="YIYOL8x4ok7efN913Wlm-26" value="" style="verticalLabelPosition=bottom;html=1;verticalAlign=top;align=center;shape=mxgraph.floorplan.plant;labelBackgroundColor=none;" vertex="1" parent="1">
          <mxGeometry x="1860" y="979" width="47" height="51" as="geometry" />
        </mxCell>
        <mxCell id="YIYOL8x4ok7efN913Wlm-31" value="" style="verticalLabelPosition=bottom;html=1;verticalAlign=top;align=center;shape=mxgraph.floorplan.toilet;rotation=-180;labelBackgroundColor=none;" vertex="1" parent="1">
          <mxGeometry x="1970" y="1106.5" width="50" height="67" as="geometry" />
        </mxCell>
        <mxCell id="YIYOL8x4ok7efN913Wlm-33" value="" style="verticalLabelPosition=bottom;html=1;verticalAlign=top;align=center;shape=mxgraph.floorplan.sink_1;rotation=-180;labelBackgroundColor=none;" vertex="1" parent="1">
          <mxGeometry x="2050" y="1130" width="60" height="45" as="geometry" />
        </mxCell>
        <mxCell id="YIYOL8x4ok7efN913Wlm-34" value="" style="verticalLabelPosition=bottom;html=1;verticalAlign=top;align=center;shape=mxgraph.floorplan.workstation;rotation=-180;labelBackgroundColor=none;" vertex="1" parent="1">
          <mxGeometry x="1640" y="1096.5" width="50" height="40" as="geometry" />
        </mxCell>
        <mxCell id="YIYOL8x4ok7efN913Wlm-35" value="" style="verticalLabelPosition=bottom;html=1;verticalAlign=top;align=center;shape=mxgraph.floorplan.workstation;rotation=-180;labelBackgroundColor=none;" vertex="1" parent="1">
          <mxGeometry x="1512.5" y="1097.25" width="55" height="46.5" as="geometry" />
        </mxCell>
        <mxCell id="YIYOL8x4ok7efN913Wlm-36" value="" style="verticalLabelPosition=bottom;html=1;verticalAlign=top;align=center;shape=mxgraph.floorplan.plant;labelBackgroundColor=none;" vertex="1" parent="1">
          <mxGeometry x="2086.5" y="979" width="47" height="51" as="geometry" />
        </mxCell>
        <mxCell id="YIYOL8x4ok7efN913Wlm-37" value="" style="verticalLabelPosition=bottom;html=1;verticalAlign=top;align=center;shape=mxgraph.floorplan.doorRight;aspect=fixed;rotation=90;labelBackgroundColor=none;" vertex="1" parent="1">
          <mxGeometry x="1190" y="802.5" width="80" height="85" as="geometry" />
        </mxCell>
        <mxCell id="YIYOL8x4ok7efN913Wlm-38" value="" style="verticalLabelPosition=bottom;html=1;verticalAlign=top;align=center;shape=mxgraph.floorplan.doorRight;aspect=fixed;rotation=90;labelBackgroundColor=none;" vertex="1" parent="1">
          <mxGeometry x="790" y="795" width="80" height="85" as="geometry" />
        </mxCell>
        <mxCell id="YIYOL8x4ok7efN913Wlm-39" value="" style="verticalLabelPosition=bottom;html=1;verticalAlign=top;align=center;shape=mxgraph.floorplan.range_1;rotation=-180;labelBackgroundColor=none;" vertex="1" parent="1">
          <mxGeometry x="880" y="940" width="50" height="62" as="geometry" />
        </mxCell>
        <mxCell id="YIYOL8x4ok7efN913Wlm-44" value="" style="shape=rect;shadow=0;html=1;labelBackgroundColor=none;" vertex="1" parent="1">
          <mxGeometry x="930" y="940" width="150" height="62" as="geometry" />
        </mxCell>
        <mxCell id="YIYOL8x4ok7efN913Wlm-45" value="" style="verticalLabelPosition=bottom;html=1;verticalAlign=top;align=center;shape=mxgraph.floorplan.shower2;rotation=90;labelBackgroundColor=none;" vertex="1" parent="1">
          <mxGeometry x="980" y="946" width="50" height="50" as="geometry" />
        </mxCell>
        <mxCell id="YIYOL8x4ok7efN913Wlm-46" value="" style="verticalLabelPosition=bottom;html=1;verticalAlign=top;align=center;shape=mxgraph.floorplan.refrigerator;rotation=-180;labelBackgroundColor=none;" vertex="1" parent="1">
          <mxGeometry x="1080" y="940" width="60" height="62" as="geometry" />
        </mxCell>
        <mxCell id="YIYOL8x4ok7efN913Wlm-47" value="" style="verticalLabelPosition=bottom;html=1;verticalAlign=top;align=center;shape=mxgraph.floorplan.chair;shadow=0;labelBackgroundColor=none;" vertex="1" parent="1">
          <mxGeometry x="985" y="740" width="40" height="52" as="geometry" />
        </mxCell>
        <mxCell id="YIYOL8x4ok7efN913Wlm-48" value="" style="verticalLabelPosition=bottom;html=1;verticalAlign=top;align=center;shape=mxgraph.floorplan.chair;shadow=0;direction=west;labelBackgroundColor=none;" vertex="1" parent="1">
          <mxGeometry x="985" y="811.5" width="40" height="52" as="geometry" />
        </mxCell>
        <mxCell id="YIYOL8x4ok7efN913Wlm-51" value="" style="shape=rect;shadow=0;html=1;labelBackgroundColor=none;" vertex="1" parent="1">
          <mxGeometry x="980" y="770" width="160" height="60" as="geometry" />
        </mxCell>
        <mxCell id="YIYOL8x4ok7efN913Wlm-56" value="" style="verticalLabelPosition=bottom;html=1;verticalAlign=top;align=center;shape=mxgraph.floorplan.sofa;rotation=-180;labelBackgroundColor=none;" vertex="1" parent="1">
          <mxGeometry x="1155" y="916" width="90" height="80" as="geometry" />
        </mxCell>
        <mxCell id="YIYOL8x4ok7efN913Wlm-57" value="" style="verticalLabelPosition=bottom;html=1;verticalAlign=top;align=center;shape=mxgraph.floorplan.toilet;rotation=-180;direction=south;labelBackgroundColor=none;" vertex="1" parent="1">
          <mxGeometry x="630" y="800" width="67" height="50" as="geometry" />
        </mxCell>
        <mxCell id="YIYOL8x4ok7efN913Wlm-58" value="" style="verticalLabelPosition=bottom;html=1;verticalAlign=top;align=center;shape=mxgraph.floorplan.sink_22;rotation=-180;labelBackgroundColor=none;" vertex="1" parent="1">
          <mxGeometry x="720" y="900" width="60" height="40" as="geometry" />
        </mxCell>
        <mxCell id="YIYOL8x4ok7efN913Wlm-60" value="" style="verticalLabelPosition=bottom;html=1;verticalAlign=top;align=center;shape=mxgraph.floorplan.plant;labelBackgroundColor=none;" vertex="1" parent="1">
          <mxGeometry x="806.5" y="746" width="47" height="40" as="geometry" />
        </mxCell>
        <mxCell id="YIYOL8x4ok7efN913Wlm-61" value="" style="verticalLabelPosition=bottom;html=1;verticalAlign=top;align=center;shape=mxgraph.floorplan.wall;direction=south;labelBackgroundColor=none;" vertex="1" parent="1">
          <mxGeometry x="1090" y="480" width="10" height="250" as="geometry" />
        </mxCell>
        <mxCell id="YIYOL8x4ok7efN913Wlm-62" value="" style="verticalLabelPosition=bottom;html=1;verticalAlign=top;align=center;shape=mxgraph.floorplan.room;labelBackgroundColor=none;" vertex="1" parent="1">
          <mxGeometry x="770" y="386" width="510" height="360" as="geometry" />
        </mxCell>
        <mxCell id="YIYOL8x4ok7efN913Wlm-63" value="" style="verticalLabelPosition=bottom;html=1;verticalAlign=top;align=center;shape=mxgraph.floorplan.bed_single;rotation=-180;labelBackgroundColor=none;" vertex="1" parent="1">
          <mxGeometry x="885" y="550" width="100" height="180" as="geometry" />
        </mxCell>
        <mxCell id="YIYOL8x4ok7efN913Wlm-64" value="" style="verticalLabelPosition=bottom;html=1;verticalAlign=top;align=center;shape=mxgraph.floorplan.office_chair;shadow=0;rotation=90;labelBackgroundColor=none;" vertex="1" parent="1">
          <mxGeometry x="1140" y="652.5" width="40" height="50" as="geometry" />
        </mxCell>
        <mxCell id="YIYOL8x4ok7efN913Wlm-65" value="" style="shape=rect;shadow=0;html=1;rotation=90;labelBackgroundColor=none;" vertex="1" parent="1">
          <mxGeometry x="1052.5" y="627.5" width="150" height="55" as="geometry" />
        </mxCell>
        <mxCell id="YIYOL8x4ok7efN913Wlm-66" value="" style="verticalLabelPosition=bottom;html=1;verticalAlign=top;align=center;shape=mxgraph.floorplan.workstation;shadow=0;flipV=1;rotation=90;labelBackgroundColor=none;" vertex="1" parent="1">
          <mxGeometry x="1102.5" y="657.5" width="55" height="40" as="geometry" />
        </mxCell>
        <mxCell id="YIYOL8x4ok7efN913Wlm-67" value="" style="verticalLabelPosition=bottom;html=1;verticalAlign=top;align=center;shape=mxgraph.floorplan.doorRight;aspect=fixed;rotation=90;labelBackgroundColor=none;" vertex="1" parent="1">
          <mxGeometry x="920" y="295" width="80" height="85" as="geometry" />
        </mxCell>
        <mxCell id="YIYOL8x4ok7efN913Wlm-79" value="" style="verticalLabelPosition=bottom;html=1;verticalAlign=top;align=center;shape=mxgraph.floorplan.office_chair;shadow=0;labelBackgroundColor=none;" vertex="1" parent="1">
          <mxGeometry x="583.5" y="150" width="40" height="43" as="geometry" />
        </mxCell>
        <mxCell id="YIYOL8x4ok7efN913Wlm-80" value="" style="verticalLabelPosition=bottom;html=1;verticalAlign=top;align=center;shape=mxgraph.floorplan.office_chair;shadow=0;direction=west;labelBackgroundColor=none;" vertex="1" parent="1">
          <mxGeometry x="583.5" y="247" width="40" height="43" as="geometry" />
        </mxCell>
        <mxCell id="YIYOL8x4ok7efN913Wlm-81" value="" style="verticalLabelPosition=bottom;html=1;verticalAlign=top;align=center;shape=mxgraph.floorplan.office_chair;shadow=0;direction=north;labelBackgroundColor=none;" vertex="1" parent="1">
          <mxGeometry x="533.5" y="200" width="43" height="40" as="geometry" />
        </mxCell>
        <mxCell id="YIYOL8x4ok7efN913Wlm-82" value="" style="verticalLabelPosition=bottom;html=1;verticalAlign=top;align=center;shape=mxgraph.floorplan.office_chair;shadow=0;direction=south;labelBackgroundColor=none;" vertex="1" parent="1">
          <mxGeometry x="810.5" y="200" width="43" height="40" as="geometry" />
        </mxCell>
        <mxCell id="YIYOL8x4ok7efN913Wlm-83" value="" style="verticalLabelPosition=bottom;html=1;verticalAlign=top;align=center;shape=mxgraph.floorplan.office_chair;shadow=0;labelBackgroundColor=none;" vertex="1" parent="1">
          <mxGeometry x="643.5" y="150" width="40" height="43" as="geometry" />
        </mxCell>
        <mxCell id="YIYOL8x4ok7efN913Wlm-84" value="" style="verticalLabelPosition=bottom;html=1;verticalAlign=top;align=center;shape=mxgraph.floorplan.office_chair;shadow=0;direction=west;labelBackgroundColor=none;" vertex="1" parent="1">
          <mxGeometry x="643.5" y="247" width="40" height="43" as="geometry" />
        </mxCell>
        <mxCell id="YIYOL8x4ok7efN913Wlm-85" value="" style="verticalLabelPosition=bottom;html=1;verticalAlign=top;align=center;shape=mxgraph.floorplan.office_chair;shadow=0;labelBackgroundColor=none;" vertex="1" parent="1">
          <mxGeometry x="703.5" y="150" width="40" height="43" as="geometry" />
        </mxCell>
        <mxCell id="YIYOL8x4ok7efN913Wlm-86" value="" style="verticalLabelPosition=bottom;html=1;verticalAlign=top;align=center;shape=mxgraph.floorplan.office_chair;shadow=0;direction=west;labelBackgroundColor=none;" vertex="1" parent="1">
          <mxGeometry x="703.5" y="247" width="40" height="43" as="geometry" />
        </mxCell>
        <mxCell id="YIYOL8x4ok7efN913Wlm-87" value="" style="verticalLabelPosition=bottom;html=1;verticalAlign=top;align=center;shape=mxgraph.floorplan.office_chair;shadow=0;labelBackgroundColor=none;" vertex="1" parent="1">
          <mxGeometry x="763.5" y="150" width="40" height="43" as="geometry" />
        </mxCell>
        <mxCell id="YIYOL8x4ok7efN913Wlm-88" value="" style="verticalLabelPosition=bottom;html=1;verticalAlign=top;align=center;shape=mxgraph.floorplan.office_chair;shadow=0;direction=west;labelBackgroundColor=none;" vertex="1" parent="1">
          <mxGeometry x="763.5" y="247" width="40" height="43" as="geometry" />
        </mxCell>
        <mxCell id="YIYOL8x4ok7efN913Wlm-89" value="" style="shape=ellipse;shadow=0;html=1;labelBackgroundColor=none;" vertex="1" parent="1">
          <mxGeometry x="553.5" y="170" width="280" height="100" as="geometry" />
        </mxCell>
        <mxCell id="YIYOL8x4ok7efN913Wlm-90" value="" style="verticalLabelPosition=bottom;html=1;verticalAlign=top;align=center;shape=mxgraph.floorplan.laptop;rotation=60;labelBackgroundColor=none;" vertex="1" parent="1">
          <mxGeometry x="583.5" y="193" width="40" height="35" as="geometry" />
        </mxCell>
        <mxCell id="YIYOL8x4ok7efN913Wlm-91" value="" style="verticalLabelPosition=bottom;html=1;verticalAlign=top;align=center;shape=mxgraph.floorplan.copier;labelBackgroundColor=none;" vertex="1" parent="1">
          <mxGeometry x="423.5" y="320" width="110" height="60" as="geometry" />
        </mxCell>
        <mxCell id="YIYOL8x4ok7efN913Wlm-93" value="" style="verticalLabelPosition=bottom;html=1;verticalAlign=top;align=center;shape=mxgraph.floorplan.plant;labelBackgroundColor=none;" vertex="1" parent="1">
          <mxGeometry x="420" y="60" width="47" height="51" as="geometry" />
        </mxCell>
        <mxCell id="YIYOL8x4ok7efN913Wlm-94" value="" style="verticalLabelPosition=bottom;html=1;verticalAlign=top;align=center;shape=stencil(vZPRDoIgFIafhnuC1X3Deg/UYzIRHJDW24eAW2p20Vx38P3wwRkHRJmteQeIYG47KByiGSKk50bwXHpMfFJHeCA4zhVvIaIMbOMB00aB8QMSF1hndAODKF3aKlQNRriYDkl3DDp6QfiMRjVGlBVaKX8LoZUN7LrIc140N6PvqpwFU9zx8cRVMMWt7sdKH/ECqZrnbLY8ci6QQr0JUgV7Kk4/OPY2/EdQSG1hcxVlnq9eM9CNFqCs0ga+9EYlpIyN+bGzPFkJAo3/I4AX);rotation=0;container=1;movable=1;resizable=1;rotatable=1;deletable=1;editable=1;locked=0;connectable=1;labelBackgroundColor=none;" vertex="1" parent="1">
          <mxGeometry x="1500" y="850" width="180" height="110" as="geometry">
            <mxRectangle x="1500" y="850" width="50" height="40" as="alternateBounds" />
          </mxGeometry>
        </mxCell>
        <mxCell id="YIYOL8x4ok7efN913Wlm-95" value="" style="verticalLabelPosition=bottom;html=1;verticalAlign=top;align=center;shape=stencil(vZPRDoIgFIafhnuC1X3Deg/UYzIRHJDW24eAW2p20Vx38P3wwRkHRJmteQeIYG47KByiGSKk50bwXHpMfFJHeCA4zhVvIaIMbOMB00aB8QMSF1hndAODKF3aKlQNRriYDkl3DDp6QfiMRjVGlBVaKX8LoZUN7LrIc140N6PvqpwFU9zx8cRVMMWt7sdKH/ECqZrnbLY8ci6QQr0JUgV7Kk4/OPY2/EdQSG1hcxVlnq9eM9CNFqCs0ga+9EYlpIyN+bGzPFkJAo3/I4AX);rotation=0;labelBackgroundColor=none;" vertex="1" parent="1">
          <mxGeometry x="1790" y="846.25" width="180" height="113.75" as="geometry" />
        </mxCell>
        <mxCell id="YIYOL8x4ok7efN913Wlm-96" value="" style="verticalLabelPosition=bottom;html=1;verticalAlign=top;align=center;shape=stencil(vZPRDoIgFIafhnuC1X3Deg/UYzIRHJDW24eAW2p20Vx38P3wwRkHRJmteQeIYG47KByiGSKk50bwXHpMfFJHeCA4zhVvIaIMbOMB00aB8QMSF1hndAODKF3aKlQNRriYDkl3DDp6QfiMRjVGlBVaKX8LoZUN7LrIc140N6PvqpwFU9zx8cRVMMWt7sdKH/ECqZrnbLY8ci6QQr0JUgV7Kk4/OPY2/EdQSG1hcxVlnq9eM9CNFqCs0ga+9EYlpIyN+bGzPFkJAo3/I4AX);rotation=0;labelBackgroundColor=none;" vertex="1" parent="1">
          <mxGeometry x="2133.5" y="846.25" width="180" height="113.75" as="geometry" />
        </mxCell>
        <mxCell id="YIYOL8x4ok7efN913Wlm-97" value="" style="verticalLabelPosition=bottom;html=1;verticalAlign=top;align=center;shape=mxgraph.floorplan.bed_single;labelBackgroundColor=none;" vertex="1" parent="1">
          <mxGeometry x="1400" y="582.5" width="70" height="180" as="geometry" />
        </mxCell>
        <mxCell id="YIYOL8x4ok7efN913Wlm-98" value="" style="verticalLabelPosition=bottom;html=1;verticalAlign=top;align=center;shape=mxgraph.floorplan.bed_single;labelBackgroundColor=none;" vertex="1" parent="1">
          <mxGeometry x="1720" y="582.5" width="70" height="180" as="geometry" />
        </mxCell>
        <mxCell id="YIYOL8x4ok7efN913Wlm-99" value="" style="verticalLabelPosition=bottom;html=1;verticalAlign=top;align=center;shape=mxgraph.floorplan.bed_single;labelBackgroundColor=none;" vertex="1" parent="1">
          <mxGeometry x="2040" y="580" width="70" height="180" as="geometry" />
        </mxCell>
        <mxCell id="YIYOL8x4ok7efN913Wlm-100" value="" style="verticalLabelPosition=bottom;html=1;verticalAlign=top;align=center;shape=mxgraph.floorplan.printer;rotation=-180;container=0;labelBackgroundColor=none;" collapsed="1" vertex="1" parent="1">
          <mxGeometry x="1630" y="857" width="50" height="40" as="geometry">
            <mxRectangle x="1640" y="850" width="40" height="47" as="alternateBounds" />
          </mxGeometry>
        </mxCell>
        <mxCell id="YIYOL8x4ok7efN913Wlm-101" value="" style="verticalLabelPosition=bottom;html=1;verticalAlign=top;align=center;shape=mxgraph.floorplan.printer;rotation=-180;labelBackgroundColor=none;" vertex="1" parent="1">
          <mxGeometry x="1920" y="850" width="40" height="47" as="geometry" />
        </mxCell>
        <mxCell id="YIYOL8x4ok7efN913Wlm-102" value="" style="verticalLabelPosition=bottom;html=1;verticalAlign=top;align=center;shape=mxgraph.floorplan.printer;rotation=-180;labelBackgroundColor=none;" vertex="1" parent="1">
          <mxGeometry x="2270" y="853" width="40" height="47" as="geometry" />
        </mxCell>
        <mxCell id="YIYOL8x4ok7efN913Wlm-103" value="" style="verticalLabelPosition=bottom;html=1;verticalAlign=top;align=center;shape=mxgraph.floorplan.workstation;rotation=-25;container=0;labelBackgroundColor=none;" collapsed="1" vertex="1" parent="1">
          <mxGeometry x="1517.5" y="850" width="50" height="40" as="geometry">
            <mxRectangle x="1517.5" y="850" width="50" height="40" as="alternateBounds" />
          </mxGeometry>
        </mxCell>
        <mxCell id="YIYOL8x4ok7efN913Wlm-104" value="" style="verticalLabelPosition=bottom;html=1;verticalAlign=top;align=center;shape=mxgraph.floorplan.workstation;rotation=-30;labelBackgroundColor=none;" vertex="1" parent="1">
          <mxGeometry x="1800" y="850" width="50" height="40" as="geometry" />
        </mxCell>
        <mxCell id="YIYOL8x4ok7efN913Wlm-105" value="" style="verticalLabelPosition=bottom;html=1;verticalAlign=top;align=center;shape=mxgraph.floorplan.workstation;rotation=-30;labelBackgroundColor=none;" vertex="1" parent="1">
          <mxGeometry x="2150" y="853" width="50" height="40" as="geometry" />
        </mxCell>
        <mxCell id="YIYOL8x4ok7efN913Wlm-109" value="" style="verticalLabelPosition=bottom;html=1;verticalAlign=top;align=center;shape=mxgraph.floorplan.flat_tv;rotation=90;labelBackgroundColor=none;" vertex="1" parent="1">
          <mxGeometry x="930" y="183" width="120" height="10" as="geometry" />
        </mxCell>
        <mxCell id="YIYOL8x4ok7efN913Wlm-116" value="" style="verticalLabelPosition=bottom;html=1;verticalAlign=top;align=center;shape=mxgraph.floorplan.bed_single;labelBackgroundColor=none;rotation=-180;" vertex="1" parent="1">
          <mxGeometry x="1635" y="240" width="70" height="180" as="geometry" />
        </mxCell>
        <mxCell id="YIYOL8x4ok7efN913Wlm-119" value="" style="verticalLabelPosition=bottom;html=1;verticalAlign=top;align=center;shape=stencil(vZPRDoIgFIafhnuC1X3Deg/UYzIRHJDW24eAW2p20Vx38P3wwRkHRJmteQeIYG47KByiGSKk50bwXHpMfFJHeCA4zhVvIaIMbOMB00aB8QMSF1hndAODKF3aKlQNRriYDkl3DDp6QfiMRjVGlBVaKX8LoZUN7LrIc140N6PvqpwFU9zx8cRVMMWt7sdKH/ECqZrnbLY8ci6QQr0JUgV7Kk4/OPY2/EdQSG1hcxVlnq9eM9CNFqCs0ga+9EYlpIyN+bGzPFkJAo3/I4AX);rotation=-180;labelBackgroundColor=none;" vertex="1" parent="1">
          <mxGeometry x="1750" y="60" width="180" height="113.75" as="geometry" />
        </mxCell>
        <mxCell id="YIYOL8x4ok7efN913Wlm-120" value="" style="verticalLabelPosition=bottom;html=1;verticalAlign=top;align=center;shape=stencil(vZPRDoIgFIafhnuC1X3Deg/UYzIRHJDW24eAW2p20Vx38P3wwRkHRJmteQeIYG47KByiGSKk50bwXHpMfFJHeCA4zhVvIaIMbOMB00aB8QMSF1hndAODKF3aKlQNRriYDkl3DDp6QfiMRjVGlBVaKX8LoZUN7LrIc140N6PvqpwFU9zx8cRVMMWt7sdKH/ECqZrnbLY8ci6QQr0JUgV7Kk4/OPY2/EdQSG1hcxVlnq9eM9CNFqCs0ga+9EYlpIyN+bGzPFkJAo3/I4AX);rotation=-180;labelBackgroundColor=none;" vertex="1" parent="1">
          <mxGeometry x="2070" y="60" width="180" height="113.75" as="geometry" />
        </mxCell>
        <mxCell id="YIYOL8x4ok7efN913Wlm-122" value="" style="verticalLabelPosition=bottom;html=1;verticalAlign=top;align=center;shape=mxgraph.floorplan.printer;rotation=25;" vertex="1" parent="1">
          <mxGeometry x="1440" y="117.25" width="40" height="47" as="geometry" />
        </mxCell>
        <mxCell id="YIYOL8x4ok7efN913Wlm-121" value="" style="verticalLabelPosition=bottom;html=1;verticalAlign=top;align=center;shape=mxgraph.floorplan.workstation;container=0;rotation=-195;" vertex="1" parent="1">
          <mxGeometry x="1545" y="120.75" width="50" height="40" as="geometry" />
        </mxCell>
        <mxCell id="YIYOL8x4ok7efN913Wlm-133" value="" style="verticalLabelPosition=bottom;html=1;verticalAlign=top;align=center;shape=mxgraph.floorplan.workstation;container=0;rotation=-195;" vertex="1" parent="1">
          <mxGeometry x="1870" y="124.25" width="50" height="40" as="geometry" />
        </mxCell>
        <mxCell id="YIYOL8x4ok7efN913Wlm-134" value="" style="verticalLabelPosition=bottom;html=1;verticalAlign=top;align=center;shape=mxgraph.floorplan.printer;rotation=25;" vertex="1" parent="1">
          <mxGeometry x="1760" y="124.25" width="40" height="47" as="geometry" />
        </mxCell>
        <mxCell id="YIYOL8x4ok7efN913Wlm-138" value="" style="verticalLabelPosition=bottom;html=1;verticalAlign=top;align=center;shape=mxgraph.floorplan.printer;rotation=25;" vertex="1" parent="1">
          <mxGeometry x="2090" y="120.75" width="40" height="47" as="geometry" />
        </mxCell>
        <mxCell id="YIYOL8x4ok7efN913Wlm-142" value="" style="verticalLabelPosition=bottom;html=1;verticalAlign=top;align=center;shape=mxgraph.floorplan.workstation;container=0;rotation=-195;" vertex="1" parent="1">
          <mxGeometry x="2180" y="124.25" width="50" height="40" as="geometry" />
        </mxCell>
        <mxCell id="YIYOL8x4ok7efN913Wlm-143" value="" style="verticalLabelPosition=bottom;html=1;verticalAlign=top;align=center;shape=mxgraph.floorplan.bed_single;labelBackgroundColor=none;rotation=-180;" vertex="1" parent="1">
          <mxGeometry x="1960" y="240" width="70" height="180" as="geometry" />
        </mxCell>
        <mxCell id="YIYOL8x4ok7efN913Wlm-144" value="" style="verticalLabelPosition=bottom;html=1;verticalAlign=top;align=center;shape=mxgraph.floorplan.bed_single;labelBackgroundColor=none;rotation=-180;" vertex="1" parent="1">
          <mxGeometry x="2280" y="240" width="70" height="180" as="geometry" />
        </mxCell>
        <mxCell id="YIYOL8x4ok7efN913Wlm-145" value="" style="verticalLabelPosition=bottom;html=1;verticalAlign=top;align=center;shape=mxgraph.floorplan.desk_corner_2;" vertex="1" parent="1">
          <mxGeometry x="2510" y="601.5" width="240" height="120" as="geometry" />
        </mxCell>
        <mxCell id="YIYOL8x4ok7efN913Wlm-147" value="" style="verticalLabelPosition=bottom;html=1;verticalAlign=top;align=center;shape=mxgraph.floorplan.workstation;rotation=-15;" vertex="1" parent="1">
          <mxGeometry x="2550" y="607.5" width="50" height="40" as="geometry" />
        </mxCell>
        <mxCell id="YIYOL8x4ok7efN913Wlm-150" value="" style="verticalLabelPosition=bottom;html=1;verticalAlign=top;align=center;shape=mxgraph.floorplan.copier;rotation=-90;" vertex="1" parent="1">
          <mxGeometry x="2350" y="631.5" width="110" height="60" as="geometry" />
        </mxCell>
        <mxCell id="YIYOL8x4ok7efN913Wlm-151" value="" style="verticalLabelPosition=bottom;html=1;verticalAlign=top;align=center;shape=mxgraph.floorplan.laptop;" vertex="1" parent="1">
          <mxGeometry x="2630" y="607.5" width="40" height="35" as="geometry" />
        </mxCell>
        <mxCell id="YIYOL8x4ok7efN913Wlm-156" value="" style="verticalLabelPosition=bottom;html=1;verticalAlign=top;align=center;shape=stencil(vZPRDoIgFIafhnuC1X3Deg/UYzIRHJDW24eAW2p20Vx38P3wwRkHRJmteQeIYG47KByiGSKk50bwXHpMfFJHeCA4zhVvIaIMbOMB00aB8QMSF1hndAODKF3aKlQNRriYDkl3DDp6QfiMRjVGlBVaKX8LoZUN7LrIc140N6PvqpwFU9zx8cRVMMWt7sdKH/ECqZrnbLY8ci6QQr0JUgV7Kk4/OPY2/EdQSG1hcxVlnq9eM9CNFqCs0ga+9EYlpIyN+bGzPFkJAo3/I4AX);rotation=90;labelBackgroundColor=none;" vertex="1" parent="1">
          <mxGeometry x="2665" y="226.63" width="170" height="113.75" as="geometry" />
        </mxCell>
        <mxCell id="YIYOL8x4ok7efN913Wlm-158" value="" style="verticalLabelPosition=bottom;html=1;verticalAlign=top;align=center;shape=mxgraph.floorplan.workstation;rotation=90;" vertex="1" parent="1">
          <mxGeometry x="2750" y="270" width="50" height="40" as="geometry" />
        </mxCell>
        <mxCell id="YIYOL8x4ok7efN913Wlm-160" value="" style="verticalLabelPosition=bottom;html=1;verticalAlign=top;align=center;shape=mxgraph.floorplan.sofa;rotation=-30;" vertex="1" parent="1">
          <mxGeometry x="2517.8300000000004" y="497.08" width="74.33" height="61.16" as="geometry" />
        </mxCell>
        <mxCell id="YIYOL8x4ok7efN913Wlm-161" value="" style="verticalLabelPosition=bottom;html=1;verticalAlign=top;align=center;shape=mxgraph.floorplan.sofa;rotation=30;" vertex="1" parent="1">
          <mxGeometry x="2675" y="492.66" width="75" height="70" as="geometry" />
        </mxCell>
        <mxCell id="YIYOL8x4ok7efN913Wlm-162" value="" style="verticalLabelPosition=bottom;html=1;verticalAlign=top;align=center;shape=mxgraph.floorplan.plant;" vertex="1" parent="1">
          <mxGeometry x="2531.5" y="200" width="47" height="51" as="geometry" />
        </mxCell>
        <mxCell id="YIYOL8x4ok7efN913Wlm-163" value="" style="verticalLabelPosition=bottom;html=1;verticalAlign=top;align=center;shape=mxgraph.floorplan.couch;rotation=-90;" vertex="1" parent="1">
          <mxGeometry x="2315" y="290" width="150" height="60" as="geometry" />
        </mxCell>
        <mxCell id="YIYOL8x4ok7efN913Wlm-166" value="" style="verticalLabelPosition=bottom;html=1;verticalAlign=top;align=center;shape=mxgraph.floorplan.flat_tv;rotation=90;" vertex="1" parent="1">
          <mxGeometry x="1855" y="1230" width="110" height="10" as="geometry" />
        </mxCell>
        <mxCell id="YIYOL8x4ok7efN913Wlm-169" value="" style="verticalLabelPosition=bottom;html=1;verticalAlign=top;align=center;shape=stencil(vZPRDoIgFIafhnuC1X3Deg/UYzIRHJDW24eAW2p20Vx38P3wwRkHRJmteQeIYG47KByiGSKk50bwXHpMfFJHeCA4zhVvIaIMbOMB00aB8QMSF1hndAODKF3aKlQNRriYDkl3DDp6QfiMRjVGlBVaKX8LoZUN7LrIc140N6PvqpwFU9zx8cRVMMWt7sdKH/ECqZrnbLY8ci6QQr0JUgV7Kk4/OPY2/EdQSG1hcxVlnq9eM9CNFqCs0ga+9EYlpIyN+bGzPFkJAo3/I4AX);rotation=90;labelBackgroundColor=none;" vertex="1" parent="1">
          <mxGeometry x="2517.83" y="30.5" width="170" height="113.75" as="geometry" />
        </mxCell>
        <mxCell id="YIYOL8x4ok7efN913Wlm-170" value="" style="verticalLabelPosition=bottom;html=1;verticalAlign=top;align=center;shape=mxgraph.floorplan.sink_22;rotation=90;" vertex="1" parent="1">
          <mxGeometry x="2610" y="68" width="40" height="35" as="geometry" />
        </mxCell>
        <mxCell id="YIYOL8x4ok7efN913Wlm-171" value="" style="verticalLabelPosition=bottom;html=1;verticalAlign=top;align=center;shape=mxgraph.floorplan.toilet;" vertex="1" parent="1">
          <mxGeometry x="2460" y="-10" width="50" height="67" as="geometry" />
        </mxCell>
        <mxCell id="YIYOL8x4ok7efN913Wlm-176" value="" style="points=[[0.005,0.09,0],[0.08,0,0],[0.76,0.25,0],[1,0.92,0],[0.91,0.995,0],[0.57,0.995,0],[0.045,0.955,0],[0.005,0.43,0]];verticalLabelPosition=bottom;sketch=0;html=1;verticalAlign=top;aspect=fixed;align=center;pointerEvents=1;shape=mxgraph.cisco19.3g_4g_indicator;fillColor=#005073;strokeColor=none;" vertex="1" parent="1">
          <mxGeometry x="1690" y="971.5" width="50" height="50" as="geometry" />
        </mxCell>
        <mxCell id="YIYOL8x4ok7efN913Wlm-177" value="" style="points=[[0.005,0.09,0],[0.08,0,0],[0.76,0.25,0],[1,0.92,0],[0.91,0.995,0],[0.57,0.995,0],[0.045,0.955,0],[0.005,0.43,0]];verticalLabelPosition=bottom;sketch=0;html=1;verticalAlign=top;aspect=fixed;align=center;pointerEvents=1;shape=mxgraph.cisco19.3g_4g_indicator;fillColor=#005073;strokeColor=none;" vertex="1" parent="1">
          <mxGeometry x="1420" y="896" width="50" height="50" as="geometry" />
        </mxCell>
        <mxCell id="YIYOL8x4ok7efN913Wlm-178" value="" style="points=[[0.005,0.09,0],[0.08,0,0],[0.76,0.25,0],[1,0.92,0],[0.91,0.995,0],[0.57,0.995,0],[0.045,0.955,0],[0.005,0.43,0]];verticalLabelPosition=bottom;sketch=0;html=1;verticalAlign=top;aspect=fixed;align=center;pointerEvents=1;shape=mxgraph.cisco19.3g_4g_indicator;fillColor=#005073;strokeColor=none;" vertex="1" parent="1">
          <mxGeometry x="1965" y="893" width="50" height="50" as="geometry" />
        </mxCell>
        <mxCell id="YIYOL8x4ok7efN913Wlm-179" value="" style="points=[[0.005,0.09,0],[0.08,0,0],[0.76,0.25,0],[1,0.92,0],[0.91,0.995,0],[0.57,0.995,0],[0.045,0.955,0],[0.005,0.43,0]];verticalLabelPosition=bottom;sketch=0;html=1;verticalAlign=top;aspect=fixed;align=center;pointerEvents=1;shape=mxgraph.cisco19.3g_4g_indicator;fillColor=#005073;strokeColor=none;" vertex="1" parent="1">
          <mxGeometry x="2070" y="889.5" width="50" height="50" as="geometry" />
        </mxCell>
        <mxCell id="YIYOL8x4ok7efN913Wlm-180" value="" style="points=[[0.005,0.09,0],[0.08,0,0],[0.76,0.25,0],[1,0.92,0],[0.91,0.995,0],[0.57,0.995,0],[0.045,0.955,0],[0.005,0.43,0]];verticalLabelPosition=bottom;sketch=0;html=1;verticalAlign=top;aspect=fixed;align=center;pointerEvents=1;shape=mxgraph.cisco19.3g_4g_indicator;fillColor=#005073;strokeColor=none;" vertex="1" parent="1">
          <mxGeometry x="1635" y="60" width="50" height="50" as="geometry" />
        </mxCell>
        <mxCell id="YIYOL8x4ok7efN913Wlm-181" value="" style="points=[[0.005,0.09,0],[0.08,0,0],[0.76,0.25,0],[1,0.92,0],[0.91,0.995,0],[0.57,0.995,0],[0.045,0.955,0],[0.005,0.43,0]];verticalLabelPosition=bottom;sketch=0;html=1;verticalAlign=top;aspect=fixed;align=center;pointerEvents=1;shape=mxgraph.cisco19.3g_4g_indicator;fillColor=#005073;strokeColor=none;" vertex="1" parent="1">
          <mxGeometry x="1945" y="60" width="50" height="50" as="geometry" />
        </mxCell>
        <mxCell id="YIYOL8x4ok7efN913Wlm-182" value="" style="points=[[0.005,0.09,0],[0.08,0,0],[0.76,0.25,0],[1,0.92,0],[0.91,0.995,0],[0.57,0.995,0],[0.045,0.955,0],[0.005,0.43,0]];verticalLabelPosition=bottom;sketch=0;html=1;verticalAlign=top;aspect=fixed;align=center;pointerEvents=1;shape=mxgraph.cisco19.3g_4g_indicator;fillColor=#005073;strokeColor=none;" vertex="1" parent="1">
          <mxGeometry x="2265" y="61" width="50" height="50" as="geometry" />
        </mxCell>
        <mxCell id="YIYOL8x4ok7efN913Wlm-183" value="" style="points=[[0.005,0.09,0],[0.08,0,0],[0.76,0.25,0],[1,0.92,0],[0.91,0.995,0],[0.57,0.995,0],[0.045,0.955,0],[0.005,0.43,0]];verticalLabelPosition=bottom;sketch=0;html=1;verticalAlign=top;aspect=fixed;align=center;pointerEvents=1;shape=mxgraph.cisco19.3g_4g_indicator;fillColor=#005073;strokeColor=none;" vertex="1" parent="1">
          <mxGeometry x="2665" y="215.00000000000003" width="50" height="50" as="geometry" />
        </mxCell>
        <mxCell id="YIYOL8x4ok7efN913Wlm-184" value="" style="points=[[0.005,0.09,0],[0.08,0,0],[0.76,0.25,0],[1,0.92,0],[0.91,0.995,0],[0.57,0.995,0],[0.045,0.955,0],[0.005,0.43,0]];verticalLabelPosition=bottom;sketch=0;html=1;verticalAlign=top;aspect=fixed;align=center;pointerEvents=1;shape=mxgraph.cisco19.3g_4g_indicator;fillColor=#005073;strokeColor=none;" vertex="1" parent="1">
          <mxGeometry x="1130" y="562.6600000000001" width="50" height="50" as="geometry" />
        </mxCell>
        <mxCell id="YIYOL8x4ok7efN913Wlm-185" value="" style="points=[[0.005,0.09,0],[0.08,0,0],[0.76,0.25,0],[1,0.92,0],[0.91,0.995,0],[0.57,0.995,0],[0.045,0.955,0],[0.005,0.43,0]];verticalLabelPosition=bottom;sketch=0;html=1;verticalAlign=top;aspect=fixed;align=center;pointerEvents=1;shape=mxgraph.cisco19.3g_4g_indicator;fillColor=#005073;strokeColor=none;" vertex="1" parent="1">
          <mxGeometry x="440" y="243.50000000000006" width="50" height="50" as="geometry" />
        </mxCell>
        <mxCell id="nv0CsmclkaXGFDLiO9ux-1" value="" style="image;html=1;image=img/lib/clip_art/computers/Server_Rack_128x128.png" vertex="1" parent="1">
          <mxGeometry x="1020" y="-9.25" width="90" height="124.25" as="geometry" />
        </mxCell>
        <mxCell id="nv0CsmclkaXGFDLiO9ux-6" value="" style="image;html=1;image=img/lib/clip_art/networking/Print_Server_Wireless_128x128.png" vertex="1" parent="1">
          <mxGeometry x="563.5" y="297.5" width="80" height="80" as="geometry" />
        </mxCell>
        <mxCell id="nv0CsmclkaXGFDLiO9ux-11" value="" style="image;html=1;image=img/lib/clip_art/networking/Modem_128x128.png" vertex="1" parent="1">
          <mxGeometry x="1273.5" y="105" width="80" height="70" as="geometry" />
        </mxCell>
        <mxCell id="Wkq1z445bAROiawOVvOf-2" value="" style="ellipse;whiteSpace=wrap;html=1;aspect=fixed;strokeColor=light-dark(#000000,#FFFFFF);gradientColor=light-dark(#000000,#FFFFFF);gradientDirection=north;fillColor=light-dark(#FFFFFF,#FFFFFF);" vertex="1" parent="1">
          <mxGeometry x="1595" y="1163.25" width="33.5" height="33.5" as="geometry" />
        </mxCell>
        <mxCell id="Wkq1z445bAROiawOVvOf-4" value="" style="ellipse;whiteSpace=wrap;html=1;aspect=fixed;strokeColor=light-dark(#000000,#3333FF);fillColor=light-dark(#FFFFFF,#FFFFFF);" vertex="1" parent="1">
          <mxGeometry x="1601.62" y="1169.87" width="20.25" height="20.25" as="geometry" />
        </mxCell>
        <mxCell id="Wkq1z445bAROiawOVvOf-6" value="" style="ellipse;whiteSpace=wrap;html=1;aspect=fixed;strokeColor=light-dark(#000000,#FFFFFF);gradientColor=light-dark(#000000,#FFFFFF);gradientDirection=north;fillColor=light-dark(#FFFFFF,#FFFFFF);container=1;" vertex="1" parent="1">
          <mxGeometry x="2586.08" y="408" width="33.5" height="33.5" as="geometry" />
        </mxCell>
        <mxCell id="Wkq1z445bAROiawOVvOf-7" value="" style="ellipse;whiteSpace=wrap;html=1;aspect=fixed;strokeColor=light-dark(#000000,#3333FF);fillColor=light-dark(#FFFFFF,#FFFFFF);" vertex="1" parent="Wkq1z445bAROiawOVvOf-6">
          <mxGeometry x="6.619999999999891" y="6.619999999999891" width="20.25" height="20.25" as="geometry" />
        </mxCell>
      </root>
    </mxGraphModel>
  </diagram>
  <diagram id="nXhEs3UCKhP_H_qyesR6" name="Página-2">
    <mxGraphModel grid="1" page="1" gridSize="10" guides="1" tooltips="1" connect="1" arrows="1" fold="1" pageScale="1" pageWidth="827" pageHeight="1169" math="0" shadow="0">
      <root>
        <mxCell id="0" />
        <mxCell id="1" parent="0" />
      </root>
    </mxGraphModel>
  </diagram>
</mxfile>
